<svg width="192" height="142" viewBox="0 0 192 142" fill="none" xmlns="http://www.w3.org/2000/svg">
<path d="M162.531 37.3068C147.982 37.3068 136.189 49.0997 136.189 63.6492C136.189 78.1987 147.982 89.9916 162.531 89.9916H188.874V63.6492C188.874 49.0997 177.078 37.3068 162.531 37.3068ZM172.261 73.376H162.531C157.167 73.376 152.802 69.0108 152.802 63.6465C152.802 58.2822 157.167 53.917 162.531 53.917C167.895 53.917 172.261 58.2822 172.261 63.6465V73.376Z" fill="white"/>
<path d="M136.958 37.2513L113.514 37.3072L96.0758 56.0221V1.51783H79.0015V89.9975H96.0758V70.2484L114.425 89.9416L137.869 89.9975L112.818 63.1353L136.958 37.2513Z" fill="white"/>
<path d="M64.694 37.3068H47.6196V90H64.694V37.3068Z" fill="white"/>
<path d="M37.5441 0C22.5268 0 10.3548 12.172 10.3548 27.1893V32.5472V37.307H2.12648V54.3813H10.3548V89.9974H27.4292V54.3785H37.5972V37.3042H27.5046L27.5242 26.5548C27.8512 21.3115 32.2197 17.147 37.5441 17.147C42.8685 17.147 47.2342 21.3115 47.564 26.5548H64.7166C64.3784 11.8338 52.3461 0 37.5441 0Z" fill="white"/>
<path d="M27.1032 135.952C24.5752 135.952 22.3672 135.2 20.4792 133.696C19.5832 132.96 18.6072 131.984 17.5512 130.768C16.4952 129.584 15.4712 128.304 14.4792 126.928C13.4872 125.52 12.6072 124.208 11.8392 122.992C10.4952 123.216 9.24719 123.36 8.09519 123.424C7.45519 124.64 6.91119 125.808 6.46319 126.928C6.01519 128.048 5.67919 129.12 5.45519 130.144C5.42319 130.336 5.39119 130.496 5.35919 130.624C5.35919 130.752 5.35919 130.848 5.35919 130.912C5.35919 131.488 5.47119 131.984 5.69519 132.4C5.91919 132.848 6.17519 133.088 6.46319 133.12C6.71919 133.152 6.92719 133.216 7.08719 133.312C7.24719 133.408 7.35919 133.52 7.42319 133.648V133.744C7.42319 133.968 7.15119 134.08 6.60719 134.08C4.78319 134.08 3.87119 133.248 3.87119 131.584C3.87119 131.456 3.88719 131.264 3.91919 131.008C3.95119 130.784 3.99919 130.496 4.06319 130.144C4.47919 128.096 5.27919 125.84 6.46319 123.376C5.91919 123.216 5.32719 122.976 4.68719 122.656C4.07919 122.336 3.56719 121.872 3.15119 121.264C2.73519 120.624 2.52719 119.776 2.52719 118.72C2.52719 117.6 2.79919 116.672 3.34319 115.936C3.88719 115.168 4.62319 114.784 5.55119 114.784C6.28719 114.784 7.10319 115.056 7.99919 115.6C8.06319 115.632 8.14319 115.696 8.23919 115.792C8.36719 115.888 8.54319 116 8.76719 116.128C9.11919 116.352 9.50319 116.72 9.91919 117.232C10.7192 116.048 11.5352 114.928 12.3672 113.872C13.2312 112.784 14.1112 111.744 15.0072 110.752C15.1352 110.624 15.1992 110.448 15.1992 110.224V110.032C15.1992 109.808 15.2472 109.648 15.3432 109.552C15.5992 109.296 16.1272 109.008 16.9272 108.688C17.0872 108.592 17.1832 108.496 17.2152 108.4C17.3752 108.208 17.5992 108.112 17.8872 108.112C18.3352 108.112 18.7512 108.272 19.1352 108.592C19.5192 108.88 19.5832 109.152 19.3272 109.408L18.4632 110.32C17.7272 111.056 16.8792 111.952 15.9192 113.008C15.0872 113.904 14.2712 114.832 13.4712 115.792C12.6712 116.72 11.9032 117.696 11.1672 118.72C11.4232 119.104 11.7112 119.536 12.0312 120.016C12.3512 120.496 12.6712 121.008 12.9912 121.552C14.9432 121.2 16.7512 120.752 18.4152 120.208C20.1112 119.632 21.7912 118.88 23.4552 117.952C25.5352 116.8 27.1192 115.552 28.2072 114.208C29.2952 112.864 29.8392 111.568 29.8392 110.32C29.8392 108.816 29.0552 107.584 27.4872 106.624C25.9512 105.632 23.7752 105.136 20.9592 105.136C20.0632 105.136 19.1032 105.2 18.0792 105.328C17.0552 105.456 15.9512 105.648 14.7672 105.904C12.4312 106.416 10.0952 107.28 7.75919 108.496C5.42319 109.712 3.48719 111.248 1.95119 113.104C1.59919 113.52 1.29519 113.6 1.03919 113.344C0.943188 113.216 0.927188 113.008 0.991188 112.72C1.02319 112.496 1.19919 112.144 1.51919 111.664C2.57519 110.16 4.30319 108.816 6.70319 107.632C8.30319 106.8 9.98319 106.096 11.7432 105.52C13.5032 104.944 15.1992 104.496 16.8312 104.176C18.4632 103.856 19.8712 103.696 21.0552 103.696C23.3592 103.696 25.4072 103.968 27.1992 104.512C30.6872 105.632 32.4312 107.424 32.4312 109.888C32.4312 111.232 31.8392 112.624 30.6552 114.064C29.4712 115.472 27.7112 116.832 25.3752 118.144C23.9352 118.944 22.1592 119.76 20.0472 120.592C17.9352 121.392 15.8072 122.064 13.6632 122.608C13.9512 123.12 14.3832 123.76 14.9592 124.528C15.5352 125.296 16.1592 126.096 16.8312 126.928C17.5352 127.728 18.2232 128.496 18.8952 129.232C19.5672 129.936 20.1432 130.512 20.6232 130.96C23.2472 133.392 25.9352 134.608 28.6872 134.608C31.2792 134.608 33.4872 133.504 35.3112 131.296C35.3752 131.232 35.4552 131.2 35.5512 131.2C35.6792 131.2 35.7752 131.264 35.8392 131.392C35.9352 131.52 35.9352 131.664 35.8392 131.824C34.6872 133.2 33.3432 134.224 31.8072 134.896C30.3032 135.6 28.7352 135.952 27.1032 135.952ZM7.23119 121.792C7.39119 121.472 7.61519 121.056 7.90319 120.544C8.22319 120 8.59119 119.376 9.00719 118.672C8.36719 117.84 7.66319 117.232 6.89519 116.848C6.15919 116.432 5.42319 116.224 4.68719 116.224C4.04719 116.224 3.72719 116.592 3.72719 117.328C3.72719 118.48 4.01519 119.456 4.59119 120.256C5.16719 121.024 6.04719 121.536 7.23119 121.792ZM9.00719 121.936C9.23119 121.936 9.51919 121.936 9.87119 121.936C10.2232 121.904 10.6552 121.872 11.1672 121.84L10.1112 120.208C9.88719 120.528 9.67919 120.832 9.48719 121.12C9.32719 121.408 9.16719 121.68 9.00719 121.936ZM29.2797 130.528C28.6077 130.528 28.0157 130.352 27.5037 130C26.6717 129.36 26.2557 128.4 26.2557 127.12C26.2557 125.84 26.7037 124.48 27.5997 123.04C28.4957 121.6 29.8557 120.272 31.6797 119.056C31.9997 118.832 32.4317 118.72 32.9757 118.72C33.6797 118.72 34.3037 118.912 34.8477 119.296C35.4237 119.68 35.6477 120.176 35.5197 120.784C35.2957 121.776 34.7997 122.656 34.0317 123.424C33.2957 124.192 32.4157 124.88 31.3917 125.488C30.3997 126.064 29.3757 126.624 28.3197 127.168C28.2877 127.264 28.2557 127.36 28.2237 127.456C28.2237 127.552 28.2237 127.648 28.2237 127.744C28.2237 128.192 28.3677 128.592 28.6557 128.944C28.9757 129.264 29.4077 129.424 29.9517 129.424C30.3677 129.424 30.7197 129.36 31.0077 129.232C31.5197 129.04 31.9357 128.864 32.2557 128.704C32.6077 128.544 33.0077 128.304 33.4557 127.984C33.9037 127.664 34.5117 127.184 35.2797 126.544C35.6317 126.288 35.8397 126.16 35.9037 126.16C36.0957 126.16 36.1597 126.304 36.0957 126.592C35.7757 127.104 35.2157 127.664 34.4157 128.272C33.6477 128.88 32.7837 129.408 31.8237 129.856C30.8957 130.304 30.0477 130.528 29.2797 130.528ZM28.6077 125.872C28.8637 125.872 29.3917 125.616 30.1917 125.104C30.9917 124.592 31.7437 124.032 32.4477 123.424C33.6637 122.304 34.2717 121.44 34.2717 120.832C34.2717 120.672 34.2237 120.528 34.1277 120.4C34.0317 120.24 33.8877 120.16 33.6957 120.16C33.0877 120.16 32.0637 120.88 30.6237 122.32C29.6317 123.28 28.9597 124.464 28.6077 125.872ZM43.6433 131.296C43.5793 131.296 43.5153 131.28 43.4513 131.248C43.3873 131.248 43.3233 131.232 43.2593 131.2C42.8113 130.976 42.5233 130.656 42.3953 130.24C42.2673 129.824 42.2353 129.296 42.2993 128.656C42.3633 128.4 42.4273 127.952 42.4913 127.312C42.5873 126.672 42.6993 126.16 42.8273 125.776L40.3793 128.128L39.0353 129.424C38.1073 130.352 37.3393 130.816 36.7313 130.816C36.4753 130.816 36.2673 130.72 36.1073 130.528C35.8193 130.176 35.6753 129.744 35.6753 129.232C35.6753 128.56 35.8513 127.84 36.2033 127.072C36.5553 126.304 36.9713 125.568 37.4513 124.864C37.9313 124.128 38.3633 123.52 38.7473 123.04C39.7073 121.856 40.6353 120.928 41.5313 120.256C42.4593 119.584 43.4193 119.248 44.4113 119.248C44.9553 119.248 45.4833 119.344 45.9953 119.536C46.5393 119.728 47.0353 120.048 47.4833 120.496L47.5313 120.544C47.5313 120.64 47.4513 120.736 47.2913 120.832C47.2273 120.896 47.1633 120.944 47.0993 120.976C47.0673 121.008 47.0353 121.04 47.0033 121.072C46.6193 121.456 46.1873 122.096 45.7073 122.992C45.2273 123.888 44.8113 124.832 44.4593 125.824C44.1073 126.784 43.9313 127.616 43.9313 128.32C43.9313 128.96 44.0913 129.392 44.4113 129.616C44.5713 129.712 44.7473 129.76 44.9393 129.76C45.3553 129.76 45.9313 129.504 46.6673 128.992C46.6993 128.96 46.7633 128.912 46.8593 128.848C46.9873 128.752 47.1633 128.624 47.3873 128.464C47.6433 128.272 47.8513 128.176 48.0113 128.176C48.1713 128.176 48.2513 128.24 48.2513 128.368C48.2513 128.56 48.1233 128.784 47.8673 129.04C47.6753 129.2 47.4513 129.376 47.1953 129.568C46.9713 129.76 46.6993 129.952 46.3793 130.144C45.8993 130.496 45.4033 130.768 44.8913 130.96C44.3793 131.184 43.9633 131.296 43.6433 131.296ZM38.2193 128.224C38.8913 128.224 40.1393 127.232 41.9633 125.248C42.4433 124.704 42.8753 124.192 43.2593 123.712C43.6433 123.2 43.9953 122.704 44.3153 122.224C44.8913 121.296 45.0833 120.656 44.8913 120.304C44.7953 120.112 44.6033 120.016 44.3153 120.016C43.9633 120.016 43.4833 120.208 42.8753 120.592C42.2673 120.944 41.6433 121.408 41.0033 121.984C40.3953 122.56 39.8353 123.136 39.3233 123.712C38.9713 124.16 38.6193 124.784 38.2673 125.584C37.9153 126.384 37.7393 127.04 37.7393 127.552C37.7393 128 37.8993 128.224 38.2193 128.224ZM50.2189 133.168C49.8669 133.168 49.5629 133.056 49.3069 132.832C49.0829 132.608 48.9869 132.336 49.0189 132.016C49.0829 130.704 49.3229 129.44 49.7389 128.224C50.1869 127.008 50.8269 125.552 51.6589 123.856C51.7549 123.632 51.8349 123.44 51.8989 123.28C51.9949 123.088 52.0749 122.928 52.1389 122.8C52.8429 121.296 53.5629 119.856 54.2989 118.48C55.0349 117.104 55.7709 115.76 56.5069 114.448L57.1789 113.248C57.9469 111.872 58.6189 110.768 59.1949 109.936C59.7709 109.072 60.3469 108.448 60.9229 108.064C61.6589 107.616 62.1069 107.392 62.2669 107.392C62.5229 107.392 62.7789 107.616 63.0349 108.064C63.1949 108.384 62.8749 109.168 62.0749 110.416C61.6589 111.056 61.1309 111.856 60.4909 112.816C59.8829 113.776 59.1469 114.864 58.2829 116.08C58.1229 116.304 57.8509 116.704 57.4669 117.28C57.1149 117.824 56.6349 118.544 56.0269 119.44C55.4189 120.336 54.8909 121.152 54.4429 121.888C53.9949 122.592 53.6269 123.216 53.3389 123.76C52.7629 124.816 52.2189 125.952 51.7069 127.168C51.1949 128.352 50.9389 129.28 50.9389 129.952C50.9389 130.56 51.1789 130.864 51.6589 130.864C52.4269 130.864 53.6589 130.208 55.3549 128.896C55.5469 128.928 55.6429 129.024 55.6429 129.184C55.6429 129.312 55.4829 129.536 55.1629 129.856C54.8749 130.144 54.5069 130.448 54.0589 130.768C53.6429 131.12 53.1469 131.52 52.5709 131.968L51.8029 132.544C51.2909 132.96 50.7629 133.168 50.2189 133.168ZM68.0798 130.96C67.3118 130.96 66.7198 130.72 66.3038 130.24C65.9198 129.792 65.7278 129.2 65.7278 128.464C65.7278 127.152 66.2078 125.872 67.1678 124.624C67.9358 123.632 68.7838 122.736 69.7118 121.936C70.6718 121.104 71.5998 120.448 72.4958 119.968C73.4238 119.456 74.2078 119.2 74.8478 119.2C75.4558 119.2 75.8558 119.456 76.0478 119.968C76.1758 120.224 76.2398 120.528 76.2398 120.88C76.2398 121.52 75.9998 121.84 75.5198 121.84C75.2958 121.84 75.0878 121.744 74.8958 121.552C74.7358 121.328 74.6558 121.024 74.6558 120.64C74.3038 120.48 73.8238 120.56 73.2158 120.88C72.6398 121.168 72.0318 121.6 71.3918 122.176C70.7518 122.72 70.1438 123.312 69.5678 123.952C68.9918 124.56 68.5438 125.088 68.2238 125.536C67.6478 126.336 67.3598 127.216 67.3598 128.176C67.3598 128.624 67.4718 128.992 67.6958 129.28C67.9198 129.568 68.2558 129.712 68.7038 129.712C69.1198 129.712 69.6158 129.584 70.1918 129.328C70.6078 129.104 70.9918 128.896 71.3438 128.704C71.7278 128.512 72.0798 128.336 72.3998 128.176C74.3838 127.056 75.5038 126.496 75.7598 126.496C75.8558 126.496 75.9038 126.544 75.9038 126.64C75.9038 126.736 75.8238 126.864 75.6638 127.024C75.3438 127.312 74.8318 127.712 74.1278 128.224C73.4238 128.736 72.6718 129.216 71.8718 129.664C71.0718 130.112 70.3358 130.448 69.6638 130.672C69.0558 130.864 68.5278 130.96 68.0798 130.96ZM78.5652 130.816C77.3172 130.816 76.6932 130.256 76.6932 129.136C76.6932 129.072 76.6932 128.96 76.6932 128.8C76.7252 128.64 76.7572 128.448 76.7892 128.224C77.1092 126.912 77.7492 125.648 78.7092 124.432C79.7012 123.184 80.8372 122.096 82.1172 121.168C82.5972 120.784 83.3652 120.592 84.4212 120.592C85.0292 120.592 85.5572 120.688 86.0052 120.88C86.4852 121.04 86.8212 121.296 87.0132 121.648C87.2052 121.968 87.3012 122.336 87.3012 122.752C87.3012 122.816 87.2852 122.912 87.2532 123.04C87.2532 123.168 87.2372 123.312 87.2052 123.472C87.2692 123.44 87.3652 123.424 87.4932 123.424C87.6532 123.424 87.8452 123.408 88.0692 123.376C88.2932 123.344 88.5012 123.312 88.6932 123.28C88.9172 123.248 89.1412 123.232 89.3652 123.232H89.5572C89.9092 123.232 89.9412 123.376 89.6532 123.664C89.3972 123.92 89.0452 124.08 88.5972 124.144L86.9652 124.336C86.6452 125.232 86.0852 126.128 85.2852 127.024C84.5172 127.92 83.6532 128.704 82.6932 129.376C81.7652 130.016 80.8852 130.432 80.0532 130.624C79.5732 130.752 79.0772 130.816 78.5652 130.816ZM84.7092 123.664C84.9012 123.664 85.1252 123.664 85.3812 123.664C85.6692 123.632 85.9892 123.6 86.3412 123.568C86.3732 123.504 86.3892 123.36 86.3892 123.136C86.3892 122.56 86.1492 122.16 85.6692 121.936C85.4132 121.776 85.0932 121.696 84.7092 121.696C84.2292 121.696 83.7332 121.856 83.2212 122.176C82.7412 122.464 82.2292 122.848 81.6852 123.328C82.3572 123.552 83.3652 123.664 84.7092 123.664ZM80.0052 129.136C80.3252 129.136 80.7732 128.992 81.3492 128.704C81.9572 128.384 82.5812 127.968 83.2212 127.456C83.8612 126.944 84.4372 126.4 84.9492 125.824C85.1092 125.664 85.2692 125.472 85.4292 125.248C85.5892 124.992 85.7652 124.736 85.9572 124.48L84.8052 124.624C83.0132 124.88 81.4132 125.024 80.0052 125.056C79.3012 126.208 78.8692 127.168 78.7092 127.936C78.6772 128.352 78.7892 128.656 79.0452 128.848C79.3012 129.04 79.6212 129.136 80.0052 129.136ZM88.5649 130.768C87.9889 130.768 87.7009 130.544 87.7009 130.096C87.7009 129.808 87.7969 129.44 87.9889 128.992C88.2129 128.544 88.4369 128.112 88.6609 127.696C89.2689 126.608 89.8289 125.552 90.3409 124.528C90.8529 123.504 91.3489 122.416 91.8289 121.264C92.0529 120.752 92.3889 120.496 92.8369 120.496C93.3169 120.496 93.4609 120.784 93.2689 121.36C93.0769 121.84 92.8849 122.272 92.6929 122.656C91.7969 124.48 91.3489 125.712 91.3489 126.352C91.3489 126.64 91.4449 126.816 91.6369 126.88C92.0849 126.528 92.4209 126.272 92.6449 126.112C92.8689 125.92 92.9969 125.808 93.0289 125.776C93.4769 125.424 93.9729 125.024 94.5169 124.576C95.0929 124.096 95.7169 123.552 96.3889 122.944C97.4449 121.984 98.3249 121.504 99.0289 121.504C99.8929 121.504 100.261 122.288 100.133 123.856C100.101 124.464 100.101 125.056 100.133 125.632C100.165 125.76 100.181 125.952 100.181 126.208C100.181 126.432 100.181 126.704 100.181 127.024C100.181 127.344 100.373 127.504 100.757 127.504C101.205 127.504 101.621 127.376 102.005 127.12L103.061 126.4L104.117 125.728C104.181 125.696 104.293 125.68 104.453 125.68C104.645 125.68 104.645 125.824 104.453 126.112C102.437 128.608 100.773 129.856 99.4609 129.856C99.2049 129.856 98.9489 129.808 98.6929 129.712C98.4689 129.616 98.3089 129.344 98.2129 128.896C98.1169 128.416 98.0529 127.904 98.0209 127.36C98.0209 126.816 98.0209 126.4 98.0209 126.112L98.0689 124.528C98.0689 123.856 97.8929 123.52 97.5409 123.52C96.7089 123.52 94.6609 125.232 91.3969 128.656C91.1409 128.976 90.7409 129.408 90.1969 129.952C89.6529 130.496 89.1089 130.768 88.5649 130.768ZM104.784 130.768C104.208 130.768 103.92 130.544 103.92 130.096C103.92 129.808 104.016 129.44 104.208 128.992C104.432 128.544 104.656 128.112 104.88 127.696C105.488 126.608 106.048 125.552 106.56 124.528C107.072 123.504 107.568 122.416 108.048 121.264C108.272 120.752 108.608 120.496 109.056 120.496C109.536 120.496 109.68 120.784 109.488 121.36C109.296 121.84 109.104 122.272 108.912 122.656C108.016 124.48 107.568 125.712 107.568 126.352C107.568 126.64 107.664 126.816 107.856 126.88C108.304 126.528 108.64 126.272 108.864 126.112C109.088 125.92 109.216 125.808 109.248 125.776C109.696 125.424 110.192 125.024 110.736 124.576C111.312 124.096 111.936 123.552 112.608 122.944C113.664 121.984 114.544 121.504 115.248 121.504C116.112 121.504 116.48 122.288 116.352 123.856C116.32 124.464 116.32 125.056 116.352 125.632C116.384 125.76 116.4 125.952 116.4 126.208C116.4 126.432 116.4 126.704 116.4 127.024C116.4 127.344 116.592 127.504 116.976 127.504C117.424 127.504 117.84 127.376 118.224 127.12L119.28 126.4L120.336 125.728C120.4 125.696 120.512 125.68 120.672 125.68C120.864 125.68 120.864 125.824 120.672 126.112C118.656 128.608 116.992 129.856 115.68 129.856C115.424 129.856 115.168 129.808 114.912 129.712C114.688 129.616 114.528 129.344 114.432 128.896C114.336 128.416 114.272 127.904 114.24 127.36C114.24 126.816 114.24 126.4 114.24 126.112L114.288 124.528C114.288 123.856 114.112 123.52 113.76 123.52C112.928 123.52 110.88 125.232 107.616 128.656C107.36 128.976 106.96 129.408 106.416 129.952C105.872 130.496 105.328 130.768 104.784 130.768ZM123.498 130.528C122.826 130.528 122.234 130.352 121.722 130C120.89 129.36 120.474 128.4 120.474 127.12C120.474 125.84 120.922 124.48 121.818 123.04C122.714 121.6 124.074 120.272 125.898 119.056C126.218 118.832 126.65 118.72 127.194 118.72C127.898 118.72 128.522 118.912 129.066 119.296C129.642 119.68 129.866 120.176 129.738 120.784C129.514 121.776 129.018 122.656 128.25 123.424C127.514 124.192 126.634 124.88 125.61 125.488C124.618 126.064 123.594 126.624 122.538 127.168C122.506 127.264 122.474 127.36 122.442 127.456C122.442 127.552 122.442 127.648 122.442 127.744C122.442 128.192 122.586 128.592 122.874 128.944C123.194 129.264 123.626 129.424 124.17 129.424C124.586 129.424 124.938 129.36 125.226 129.232C125.738 129.04 126.154 128.864 126.474 128.704C126.826 128.544 127.226 128.304 127.674 127.984C128.122 127.664 128.73 127.184 129.498 126.544C129.85 126.288 130.058 126.16 130.122 126.16C130.314 126.16 130.378 126.304 130.314 126.592C129.994 127.104 129.434 127.664 128.634 128.272C127.866 128.88 127.002 129.408 126.042 129.856C125.114 130.304 124.266 130.528 123.498 130.528ZM122.826 125.872C123.082 125.872 123.61 125.616 124.41 125.104C125.21 124.592 125.962 124.032 126.666 123.424C127.882 122.304 128.49 121.44 128.49 120.832C128.49 120.672 128.442 120.528 128.346 120.4C128.25 120.24 128.106 120.16 127.914 120.16C127.306 120.16 126.282 120.88 124.842 122.32C123.85 123.28 123.178 124.464 122.826 125.872ZM132.486 130.96C131.718 130.96 131.126 130.72 130.71 130.24C130.326 129.792 130.134 129.2 130.134 128.464C130.134 127.152 130.614 125.872 131.574 124.624C132.342 123.632 133.19 122.736 134.118 121.936C135.078 121.104 136.006 120.448 136.902 119.968C137.83 119.456 138.614 119.2 139.254 119.2C139.862 119.2 140.262 119.456 140.454 119.968C140.582 120.224 140.646 120.528 140.646 120.88C140.646 121.52 140.406 121.84 139.926 121.84C139.702 121.84 139.494 121.744 139.302 121.552C139.142 121.328 139.062 121.024 139.062 120.64C138.71 120.48 138.23 120.56 137.622 120.88C137.046 121.168 136.438 121.6 135.798 122.176C135.158 122.72 134.55 123.312 133.974 123.952C133.398 124.56 132.95 125.088 132.63 125.536C132.054 126.336 131.766 127.216 131.766 128.176C131.766 128.624 131.878 128.992 132.102 129.28C132.326 129.568 132.662 129.712 133.11 129.712C133.526 129.712 134.022 129.584 134.598 129.328C135.014 129.104 135.398 128.896 135.75 128.704C136.134 128.512 136.486 128.336 136.806 128.176C138.79 127.056 139.91 126.496 140.166 126.496C140.262 126.496 140.31 126.544 140.31 126.64C140.31 126.736 140.23 126.864 140.07 127.024C139.75 127.312 139.238 127.712 138.534 128.224C137.83 128.736 137.078 129.216 136.278 129.664C135.478 130.112 134.742 130.448 134.07 130.672C133.462 130.864 132.934 130.96 132.486 130.96ZM141.867 134.464C141.707 134.464 141.627 134.32 141.627 134.032C141.627 133.968 141.627 133.872 141.627 133.744C141.659 133.648 141.691 133.536 141.723 133.408L143.787 128.224L146.235 122.176C145.851 122.144 145.291 122.16 144.555 122.224C143.819 122.256 143.195 122.32 142.683 122.416C142.491 122.448 142.331 122.48 142.203 122.512C142.107 122.512 142.027 122.512 141.963 122.512C141.707 122.512 141.531 122.4 141.435 122.176C141.467 121.984 141.643 121.808 141.963 121.648C142.123 121.584 142.315 121.536 142.539 121.504C142.763 121.44 143.035 121.376 143.355 121.312C143.707 121.248 144.011 121.2 144.267 121.168C144.555 121.136 144.763 121.104 144.891 121.072C145.051 121.04 145.211 121.008 145.371 120.976C145.531 120.944 145.723 120.912 145.947 120.88C146.139 120.848 146.347 120.816 146.571 120.784C146.795 120.752 147.035 120.704 147.291 120.64C147.547 120.288 147.931 119.664 148.443 118.768C148.955 117.872 149.611 116.688 150.411 115.216C151.051 114.032 151.563 113.104 151.947 112.432C152.363 111.728 152.651 111.264 152.811 111.04C153.099 110.656 153.435 110.464 153.819 110.464C154.011 110.464 154.107 110.544 154.107 110.704C154.107 110.736 154.027 110.944 153.867 111.328C153.675 111.648 153.355 112.24 152.907 113.104C152.459 113.968 151.979 114.912 151.467 115.936C150.955 116.96 150.491 117.92 150.075 118.816C149.659 119.712 149.371 120.368 149.211 120.784C149.371 120.752 149.547 120.736 149.739 120.736C149.963 120.736 150.235 120.736 150.555 120.736C150.907 120.736 151.227 120.752 151.515 120.784C151.835 120.784 152.107 120.8 152.331 120.832C152.779 120.928 153.003 121.056 153.003 121.216C153.003 121.28 152.859 121.392 152.571 121.552C152.411 121.616 152.107 121.68 151.659 121.744C151.211 121.808 150.619 121.872 149.883 121.936C149.691 121.936 149.483 121.952 149.259 121.984C149.035 121.984 148.795 122 148.539 122.032C147.579 123.6 146.267 126.208 144.603 129.856C143.995 131.072 143.531 132.016 143.211 132.688C142.891 133.36 142.699 133.76 142.635 133.888C142.347 134.272 142.091 134.464 141.867 134.464ZM154.394 119.488C153.978 119.488 153.77 119.392 153.77 119.2C153.77 119.04 153.882 118.816 154.106 118.528C154.362 118.208 154.65 117.936 154.97 117.712C155.674 117.264 156.218 116.88 156.602 116.56C157.018 116.24 157.514 115.696 158.09 114.928C158.122 114.992 158.138 115.12 158.138 115.312C158.138 115.728 157.962 116.24 157.61 116.848C157.29 117.424 156.922 117.952 156.506 118.432C156.09 118.912 155.722 119.216 155.402 119.344C155.114 119.44 154.778 119.488 154.394 119.488ZM150.122 131.248C149.866 131.248 149.626 131.152 149.402 130.96C149.178 130.768 149.066 130.512 149.066 130.192C149.066 129.52 149.53 128.288 150.458 126.496L150.986 125.44C151.05 125.376 151.13 125.216 151.226 124.96C151.354 124.704 151.53 124.368 151.754 123.952C151.978 123.504 152.154 123.104 152.282 122.752C152.41 122.4 152.506 122.064 152.57 121.744C152.57 121.712 152.634 121.648 152.762 121.552C152.89 121.456 153.018 121.376 153.146 121.312L153.434 121.264C153.69 121.264 153.898 121.312 154.058 121.408C154.25 121.504 154.314 121.632 154.25 121.792C154.026 122.272 153.834 122.688 153.674 123.04C153.514 123.392 153.386 123.696 153.29 123.952H153.242C152.89 124.752 152.586 125.52 152.33 126.256C152.106 126.96 152.01 127.632 152.042 128.272L152.09 129.568C152.058 129.888 151.946 130.16 151.754 130.384C151.626 130.48 151.45 130.592 151.226 130.72C151.002 130.88 150.714 131.04 150.362 131.2C150.33 131.232 150.25 131.248 150.122 131.248ZM156.284 130.816C155.036 130.816 154.412 130.256 154.412 129.136C154.412 129.072 154.412 128.96 154.412 128.8C154.444 128.64 154.476 128.448 154.508 128.224C154.828 126.912 155.468 125.648 156.428 124.432C157.42 123.184 158.556 122.096 159.836 121.168C160.316 120.784 161.084 120.592 162.14 120.592C162.748 120.592 163.276 120.688 163.724 120.88C164.204 121.04 164.54 121.296 164.732 121.648C164.924 121.968 165.02 122.336 165.02 122.752C165.02 122.816 165.004 122.912 164.972 123.04C164.972 123.168 164.956 123.312 164.924 123.472C164.988 123.44 165.084 123.424 165.212 123.424C165.372 123.424 165.564 123.408 165.788 123.376C166.012 123.344 166.22 123.312 166.412 123.28C166.636 123.248 166.86 123.232 167.084 123.232H167.276C167.628 123.232 167.66 123.376 167.372 123.664C167.116 123.92 166.764 124.08 166.316 124.144L164.684 124.336C164.364 125.232 163.804 126.128 163.004 127.024C162.236 127.92 161.372 128.704 160.412 129.376C159.484 130.016 158.604 130.432 157.772 130.624C157.292 130.752 156.796 130.816 156.284 130.816ZM162.428 123.664C162.62 123.664 162.844 123.664 163.1 123.664C163.388 123.632 163.708 123.6 164.06 123.568C164.092 123.504 164.108 123.36 164.108 123.136C164.108 122.56 163.868 122.16 163.388 121.936C163.132 121.776 162.812 121.696 162.428 121.696C161.948 121.696 161.452 121.856 160.94 122.176C160.46 122.464 159.948 122.848 159.404 123.328C160.076 123.552 161.084 123.664 162.428 123.664ZM157.724 129.136C158.044 129.136 158.492 128.992 159.068 128.704C159.676 128.384 160.3 127.968 160.94 127.456C161.58 126.944 162.156 126.4 162.668 125.824C162.828 125.664 162.988 125.472 163.148 125.248C163.308 124.992 163.484 124.736 163.676 124.48L162.524 124.624C160.732 124.88 159.132 125.024 157.724 125.056C157.02 126.208 156.588 127.168 156.428 127.936C156.396 128.352 156.508 128.656 156.764 128.848C157.02 129.04 157.34 129.136 157.724 129.136ZM166.284 130.768C165.708 130.768 165.42 130.544 165.42 130.096C165.42 129.808 165.516 129.44 165.708 128.992C165.932 128.544 166.156 128.112 166.38 127.696C166.988 126.608 167.548 125.552 168.06 124.528C168.572 123.504 169.068 122.416 169.548 121.264C169.772 120.752 170.108 120.496 170.556 120.496C171.036 120.496 171.18 120.784 170.988 121.36C170.796 121.84 170.604 122.272 170.412 122.656C169.516 124.48 169.068 125.712 169.068 126.352C169.068 126.64 169.164 126.816 169.356 126.88C169.804 126.528 170.14 126.272 170.364 126.112C170.588 125.92 170.716 125.808 170.748 125.776C171.196 125.424 171.692 125.024 172.236 124.576C172.812 124.096 173.436 123.552 174.108 122.944C175.164 121.984 176.044 121.504 176.748 121.504C177.612 121.504 177.98 122.288 177.852 123.856C177.82 124.464 177.82 125.056 177.852 125.632C177.884 125.76 177.9 125.952 177.9 126.208C177.9 126.432 177.9 126.704 177.9 127.024C177.9 127.344 178.092 127.504 178.476 127.504C178.924 127.504 179.34 127.376 179.724 127.12L180.78 126.4L181.836 125.728C181.9 125.696 182.012 125.68 182.172 125.68C182.364 125.68 182.364 125.824 182.172 126.112C180.156 128.608 178.492 129.856 177.18 129.856C176.924 129.856 176.668 129.808 176.412 129.712C176.188 129.616 176.028 129.344 175.932 128.896C175.836 128.416 175.772 127.904 175.74 127.36C175.74 126.816 175.74 126.4 175.74 126.112L175.788 124.528C175.788 123.856 175.612 123.52 175.26 123.52C174.428 123.52 172.38 125.232 169.116 128.656C168.86 128.976 168.46 129.408 167.916 129.952C167.372 130.496 166.828 130.768 166.284 130.768ZM181.014 132.016C180.502 132.016 180.054 131.968 179.67 131.872C179.318 131.776 179.142 131.648 179.142 131.488C179.142 131.232 179.398 131.088 179.91 131.056C180.39 131.024 180.71 130.976 180.87 130.912C181.158 130.848 181.494 130.8 181.878 130.768C182.23 130.704 182.518 130.656 182.742 130.624C184.278 130.176 185.046 129.488 185.046 128.56C185.046 127.92 184.71 127.104 184.038 126.112C183.622 125.504 183.414 124.832 183.414 124.096C183.414 123.2 183.686 122.32 184.23 121.456C184.806 120.592 185.51 119.84 186.342 119.2C187.206 118.528 188.07 118.08 188.934 117.856C189.318 117.76 189.718 117.712 190.134 117.712C190.806 117.712 191.286 117.872 191.574 118.192C191.766 118.384 191.862 118.8 191.862 119.44C191.862 119.92 191.782 120.416 191.622 120.928C191.462 121.408 191.238 121.808 190.95 122.128C190.79 122.288 190.662 122.368 190.566 122.368C190.406 122.368 190.326 122.144 190.326 121.696L190.374 120.736C190.406 120.48 190.422 120.256 190.422 120.064C190.454 119.872 190.47 119.712 190.47 119.584C190.47 119.04 190.358 118.72 190.134 118.624C189.878 118.56 189.702 118.528 189.606 118.528C188.934 118.528 188.214 118.832 187.446 119.44C186.678 120.048 186.054 120.752 185.574 121.552C185.382 121.84 185.286 122.192 185.286 122.608C185.286 123.12 185.414 123.728 185.67 124.432C185.958 125.104 186.166 125.6 186.294 125.92C186.614 126.624 186.854 127.232 187.014 127.744C187.206 128.256 187.302 128.704 187.302 129.088C187.302 129.28 187.286 129.424 187.254 129.52C187.414 129.456 187.798 129.36 188.406 129.232C188.95 129.104 189.414 129.04 189.798 129.04C190.022 129.04 190.134 129.088 190.134 129.184C190.134 129.216 190.038 129.328 189.846 129.52C189.75 129.616 189.446 129.776 188.934 130C188.454 130.192 187.878 130.4 187.206 130.624C186.566 130.848 185.926 131.056 185.286 131.248C184.646 131.44 184.102 131.584 183.654 131.68C182.886 131.904 182.006 132.016 181.014 132.016Z" fill="white"/>
</svg>
